<svg xmlns="http://www.w3.org/2000/svg" viewBox="0 0 250 237.69"><defs><style>.cls-1{fill:#bf6c34;}.cls-2{fill:#9b592d;}.cls-3{fill:#6b2b00;}</style></defs><title>Asset 14</title><g id="Layer_2" data-name="Layer 2"><g id="Pot"><path class="cls-1" d="M192,225.18l-12.19,3.94a176.92,176.92,0,0,1-105.9.9L58,225.18l-25-182H220Z"/><path class="cls-2" d="M214,81.18l-32.14,7.65a239.76,239.76,0,0,1-107,.38L38,81.18l-5-58L39.68,23C97.58,6.94,170.12,7,228,23.18h-5Z"/><path class="cls-1" d="M250,70.18l-47.07,7.65A480.68,480.68,0,0,1,51,78.22l-51-8v-58L1,12a647.38,647.38,0,0,1,249,.19h0Z"/><path class="cls-3" d="M19.5,38s101-64.81,214,0C233.5,38,107.5,96,19.5,38Z"/></g></g></svg>