<svg xmlns="http://www.w3.org/2000/svg" viewBox="0 0 606.67 182"><defs><style>.cls-1{fill:#999;}.cls-2{fill:#bfbfbf;}</style></defs><title>Cloud6</title><g id="Layer_2" data-name="Layer 2"><g id="Clouds"><g id="Cloud3"><path class="cls-1" d="M503.85,127.11c0,.19,0,.4,0,.59,0,29.48-40.8,53.4-91.15,53.4a141.16,141.16,0,0,1-48.64-8.24,239.66,239.66,0,0,1-42.51,8.24c-21.39,2.28-43.25.13-63.79-5.06-13.06,3.38-29.33,5.06-47,5.06-40.53,0-89.34-25.91-98-45.32C58,132.68,16.33,117.5,16.33,99.22c0-20.5,52.43-37.12,117.11-37.12,11.88,0,23.35.56,34.15,1.61,21.78-27.85,72.56-47.37,131.72-47.37,58.9,0,109.48,19.35,131.42,47,12-.8,24.58-1.23,37.62-1.23,76.38,0,138.31,14.8,138.31,33.05C606.67,110.48,563,123.37,503.85,127.11Z"/><path class="cls-2" d="M487.52,110.78c0,.19,0,.4,0,.59,0,29.48-40.8,53.4-91.15,53.4a141.16,141.16,0,0,1-48.64-8.24,239.66,239.66,0,0,1-42.51,8.24c-21.39,2.28-43.25.13-63.79-5.06-13.06,3.38-29.33,5.06-47,5.06-40.53,0-89.34-25.91-98-45.32C41.65,116.35,0,101.17,0,82.89c0-20.5,52.43-37.12,117.11-37.12,11.88,0,23.35.56,34.15,1.61C173,19.53,223.82,0,283,0c58.9,0,109.48,19.35,131.42,47,12-.8,24.58-1.23,37.62-1.23,76.38,0,138.31,14.8,138.31,33.05C590.33,94.15,546.7,107,487.52,110.78Z"/></g></g></g></svg>