<svg xmlns="http://www.w3.org/2000/svg" viewBox="0 0 791 213"><defs><style>.cls-1{fill:#e0e0e0;}.cls-2{fill:#fff;}</style></defs><title>Asset 12</title><g id="Layer_2" data-name="Layer 2"><g id="Clouds"><path class="cls-1" d="M656.94,147.68c0,.23,0,.47,0,.7,0,35.08-53.2,63.54-118.84,63.54-23.31,0-45.06-3.59-63.41-9.8a339.14,339.14,0,0,1-55.43,9.8c-27.89,2.71-56.39.16-83.17-6-17,4-38.24,6-61.23,6-52.84,0-116.49-30.84-127.74-53.93C75.6,154.32,21.3,136.25,21.3,114.5c0-24.4,68.36-44.17,152.7-44.17,15.49,0,30.44.67,44.52,1.91,28.4-33.14,94.6-56.37,171.74-56.37,76.79,0,142.75,23,171.35,55.92,15.6-1,32-1.46,49.06-1.46C710.26,70.33,791,87.94,791,109.66,791,127.9,734.11,143.23,656.94,147.68Z"/><path class="cls-2" d="M635.65,131.82c0,.23,0,.47,0,.7,0,35.08-53.2,63.54-118.84,63.54-23.31,0-45.06-3.59-63.41-9.8a339.14,339.14,0,0,1-55.43,9.8c-27.89,2.71-56.39.16-83.17-6-17,4-38.24,6-61.23,6-52.84,0-116.49-30.84-127.74-53.93C54.31,138.45,0,120.38,0,98.63c0-24.4,68.36-44.17,152.7-44.17,15.49,0,30.44.67,44.52,1.91C225.62,23.24,291.82,0,369,0c76.79,0,142.75,23,171.35,55.92,15.6-1,32-1.46,49.06-1.46C689,54.46,769.7,72.07,769.7,93.79,769.7,112,712.81,127.36,635.65,131.82Z"/></g></g></svg>