<svg xmlns="http://www.w3.org/2000/svg" viewBox="0 0 733 193"><defs><style>.cls-1{fill:#e0e0e0;}.cls-2{fill:#fff;}</style></defs><title>Asset 13</title><g id="Layer_2" data-name="Layer 2"><g id="Clouds"><g id="Cloud1"><path class="cls-1" d="M714,134c0,24.67-60.44,44.67-135,44.67a386.86,386.86,0,0,1-47-2.78C512.1,186.54,485.8,193,457,193c-33.26,0-63.16-8.62-83.83-22.35a276.65,276.65,0,0,1-67.17,8c-33.36,0-64.37-5.56-90.13-15.09-14,1.21-28.71,1.85-43.87,1.85-95,0-172-25.18-172-56.25C0,84.06,50.34,62.8,119.82,55.57c6-18,26.19-31.31,50.18-31.31a62,62,0,0,1,19.39,3.05C218.85,10.48,260.21,0,306,0c69,0,128,23.81,151.31,57.35,40.9.07,76.7,13.18,96.44,32.77,8.18-.52,16.62-.78,25.25-.78C653.56,89.33,714,109.33,714,134Z"/><path class="cls-2" d="M733,121.5c0,22.37-60.44,40.5-135,40.5a426.17,426.17,0,0,1-47-2.52c-20,9.66-46.25,15.52-75,15.52-33.26,0-63.16-7.82-83.83-20.27A303.74,303.74,0,0,1,325,162c-33.36,0-64.37-5-90.13-13.68-14,1.1-28.71,1.68-43.87,1.68C96,150,19,127.17,19,99c0-22.78,50.34-42.06,119.82-48.61C144.81,34,165,22,189,22a67.85,67.85,0,0,1,19.39,2.77C237.85,9.5,279.21,0,325,0c69,0,128,21.59,151.31,52,40.9.06,76.7,12,96.44,29.71,8.18-.47,16.62-.71,25.25-.71C672.56,81,733,99.13,733,121.5Z"/></g></g></g></svg>