<svg xmlns="http://www.w3.org/2000/svg" viewBox="0 0 530.44 133"><defs><style>.cls-1{fill:#b7b7b7;}.cls-2{fill:#d8d8d8;}</style></defs><title>Asset 10</title><g id="Layer_2" data-name="Layer 2"><g id="Background"><path class="cls-1" d="M530.44,83.84c0,23.1-71,41.82-158.49,41.82-30.45,0-58.89-2.27-83-6.19-11,8.2-28.79,13.53-48.93,13.53-27.93,0-64-10-74.95-23.85-9.15.73-18.69,1.11-28.5,1.11-68.49,0-124-18.72-124-41.82,0-20.76,44.83-38,103.61-41.26,14.82-14.11,50.14-24,91.36-24,39.48,0,73.55,9.11,89.37,22.28,12.87-7.32,32.81-12,55.19-12,29.85,0,56.55,19.19,60.35,30C480.33,48.11,530.44,64.43,530.44,83.84Z"/><path class="cls-2" d="M517.92,72.95c0,20.88-71,37.8-158.49,37.8a581.51,581.51,0,0,1-83-5.6c-11,7.41-28.79,12.23-48.93,12.23-27.93,0-64-9-74.95-21.56-9.15.66-18.69,1-28.5,1C55.52,96.82,0,79.9,0,59,0,40.26,44.83,24.7,103.61,21.73,118.43,9,153.75,0,195,0c39.48,0,73.55,8.24,89.37,20.14,12.87-6.61,32.81-10.86,55.19-10.86,29.85,0,56.55,17.35,60.35,27.1C467.82,40.65,517.92,55.41,517.92,72.95Z"/></g></g></svg>